%TF.GenerationSoftware,KiCad,Pcbnew,7.0.1*%
%TF.CreationDate,2023-04-18T12:26:55-05:00*%
%TF.ProjectId,HW4_PCB,4857345f-5043-4422-9e6b-696361645f70,rev?*%
%TF.SameCoordinates,Original*%
%TF.FileFunction,Soldermask,Bot*%
%TF.FilePolarity,Negative*%
%FSLAX46Y46*%
G04 Gerber Fmt 4.6, Leading zero omitted, Abs format (unit mm)*
G04 Created by KiCad (PCBNEW 7.0.1) date 2023-04-18 12:26:55*
%MOMM*%
%LPD*%
G01*
G04 APERTURE LIST*
%ADD10C,1.600000*%
%ADD11O,1.600000X1.600000*%
%ADD12R,1.700000X1.700000*%
%ADD13O,1.700000X1.700000*%
%ADD14R,1.800000X1.800000*%
%ADD15C,1.800000*%
%ADD16R,1.600000X1.600000*%
%ADD17C,1.700000*%
%ADD18R,1.050000X1.500000*%
%ADD19O,1.050000X1.500000*%
G04 APERTURE END LIST*
D10*
%TO.C,R4*%
X109220000Y-134620000D03*
D11*
X116840000Y-134620000D03*
%TD*%
D10*
%TO.C,R5*%
X139700000Y-147320000D03*
D11*
X132080000Y-147320000D03*
%TD*%
D10*
%TO.C,C2*%
X109300000Y-121920000D03*
X114300000Y-121920000D03*
%TD*%
D12*
%TO.C,J4*%
X147320000Y-114300000D03*
D13*
X147320000Y-116840000D03*
X147320000Y-119380000D03*
X147320000Y-121920000D03*
X147320000Y-124460000D03*
X147320000Y-127000000D03*
X147320000Y-129540000D03*
X147320000Y-132080000D03*
X147320000Y-134620000D03*
X147320000Y-137160000D03*
%TD*%
D12*
%TO.C,MCLR1*%
X147320000Y-104140000D03*
D13*
X147320000Y-109220000D03*
%TD*%
D10*
%TO.C,R3*%
X134620000Y-114300000D03*
D11*
X142240000Y-114300000D03*
%TD*%
D10*
%TO.C,C4*%
X134660000Y-109220000D03*
X137160000Y-109220000D03*
%TD*%
D14*
%TO.C,D2*%
X111760000Y-144780000D03*
D15*
X111760000Y-147320000D03*
%TD*%
D10*
%TO.C,C6*%
X134700000Y-129540000D03*
X139700000Y-129540000D03*
%TD*%
D16*
%TO.C,PIC32MX170F256B1*%
X121920000Y-109220000D03*
D11*
X121920000Y-111760000D03*
X121920000Y-114300000D03*
X121920000Y-116840000D03*
X121920000Y-119380000D03*
X121920000Y-121920000D03*
X121920000Y-124460000D03*
X121920000Y-127000000D03*
X121920000Y-129540000D03*
X121920000Y-132080000D03*
X121920000Y-134620000D03*
X121920000Y-137160000D03*
X121920000Y-139700000D03*
X121920000Y-142240000D03*
X129540000Y-142240000D03*
X129540000Y-139700000D03*
X129540000Y-137160000D03*
X129540000Y-134620000D03*
X129540000Y-132080000D03*
X129540000Y-129540000D03*
X129540000Y-127000000D03*
X129540000Y-124460000D03*
X129540000Y-121920000D03*
X129540000Y-119380000D03*
X129540000Y-116840000D03*
X129540000Y-114300000D03*
X129540000Y-111760000D03*
X129540000Y-109220000D03*
%TD*%
D10*
%TO.C,R1*%
X109220000Y-109220000D03*
D11*
X116840000Y-109220000D03*
%TD*%
D12*
%TO.C,CP2102N1*%
X104140000Y-142240000D03*
D13*
X104140000Y-139700000D03*
X104140000Y-137160000D03*
X104140000Y-134620000D03*
X104140000Y-132080000D03*
X104140000Y-129540000D03*
%TD*%
D12*
%TO.C,J2*%
X104140000Y-111760000D03*
D13*
X104140000Y-114300000D03*
X104140000Y-116840000D03*
X104140000Y-119380000D03*
X104140000Y-121920000D03*
X104140000Y-124460000D03*
%TD*%
D10*
%TO.C,R2*%
X109220000Y-114300000D03*
D11*
X116840000Y-114300000D03*
%TD*%
D10*
%TO.C,C5*%
X114340000Y-139700000D03*
X116840000Y-139700000D03*
%TD*%
%TO.C,C1*%
X109300000Y-127000000D03*
X114300000Y-127000000D03*
%TD*%
D17*
%TO.C,Slide1*%
X114300000Y-104140000D03*
X111800000Y-104140000D03*
X109300000Y-104140000D03*
%TD*%
D18*
%TO.C,AP7381*%
X137160000Y-104140000D03*
D19*
X135890000Y-104140000D03*
X134620000Y-104140000D03*
%TD*%
D14*
%TO.C,D1*%
X129540000Y-101600000D03*
D15*
X129540000Y-104140000D03*
%TD*%
D12*
%TO.C,USER1*%
X142240000Y-104140000D03*
D13*
X142240000Y-109220000D03*
%TD*%
D10*
%TO.C,C3*%
X124380000Y-104140000D03*
X119380000Y-104140000D03*
%TD*%
D12*
%TO.C,Battery1*%
X101600000Y-101600000D03*
D13*
X101600000Y-104140000D03*
%TD*%
D14*
%TO.C,D3*%
X144780000Y-144780000D03*
D15*
X144780000Y-147320000D03*
%TD*%
M02*
