%TF.GenerationSoftware,KiCad,Pcbnew,7.0.1*%
%TF.CreationDate,2023-04-18T12:26:55-05:00*%
%TF.ProjectId,HW4_PCB,4857345f-5043-4422-9e6b-696361645f70,rev?*%
%TF.SameCoordinates,Original*%
%TF.FileFunction,Legend,Top*%
%TF.FilePolarity,Positive*%
%FSLAX46Y46*%
G04 Gerber Fmt 4.6, Leading zero omitted, Abs format (unit mm)*
G04 Created by KiCad (PCBNEW 7.0.1) date 2023-04-18 12:26:55*
%MOMM*%
%LPD*%
G01*
G04 APERTURE LIST*
%ADD10C,0.150000*%
%ADD11C,0.100000*%
%ADD12C,0.120000*%
%ADD13C,0.400000*%
G04 APERTURE END LIST*
D10*
X116982857Y-146197619D02*
X117649523Y-146197619D01*
X117649523Y-146197619D02*
X116982857Y-147197619D01*
X116982857Y-147197619D02*
X117649523Y-147197619D01*
X118459047Y-147197619D02*
X118459047Y-146673809D01*
X118459047Y-146673809D02*
X118411428Y-146578571D01*
X118411428Y-146578571D02*
X118316190Y-146530952D01*
X118316190Y-146530952D02*
X118125714Y-146530952D01*
X118125714Y-146530952D02*
X118030476Y-146578571D01*
X118459047Y-147150000D02*
X118363809Y-147197619D01*
X118363809Y-147197619D02*
X118125714Y-147197619D01*
X118125714Y-147197619D02*
X118030476Y-147150000D01*
X118030476Y-147150000D02*
X117982857Y-147054761D01*
X117982857Y-147054761D02*
X117982857Y-146959523D01*
X117982857Y-146959523D02*
X118030476Y-146864285D01*
X118030476Y-146864285D02*
X118125714Y-146816666D01*
X118125714Y-146816666D02*
X118363809Y-146816666D01*
X118363809Y-146816666D02*
X118459047Y-146769047D01*
X119363809Y-147150000D02*
X119268571Y-147197619D01*
X119268571Y-147197619D02*
X119078095Y-147197619D01*
X119078095Y-147197619D02*
X118982857Y-147150000D01*
X118982857Y-147150000D02*
X118935238Y-147102380D01*
X118935238Y-147102380D02*
X118887619Y-147007142D01*
X118887619Y-147007142D02*
X118887619Y-146721428D01*
X118887619Y-146721428D02*
X118935238Y-146626190D01*
X118935238Y-146626190D02*
X118982857Y-146578571D01*
X118982857Y-146578571D02*
X119078095Y-146530952D01*
X119078095Y-146530952D02*
X119268571Y-146530952D01*
X119268571Y-146530952D02*
X119363809Y-146578571D01*
X119792381Y-147197619D02*
X119792381Y-146197619D01*
X120220952Y-147197619D02*
X120220952Y-146673809D01*
X120220952Y-146673809D02*
X120173333Y-146578571D01*
X120173333Y-146578571D02*
X120078095Y-146530952D01*
X120078095Y-146530952D02*
X119935238Y-146530952D01*
X119935238Y-146530952D02*
X119840000Y-146578571D01*
X119840000Y-146578571D02*
X119792381Y-146626190D01*
X121982857Y-146245238D02*
X121887619Y-146197619D01*
X121887619Y-146197619D02*
X121744762Y-146197619D01*
X121744762Y-146197619D02*
X121601905Y-146245238D01*
X121601905Y-146245238D02*
X121506667Y-146340476D01*
X121506667Y-146340476D02*
X121459048Y-146435714D01*
X121459048Y-146435714D02*
X121411429Y-146626190D01*
X121411429Y-146626190D02*
X121411429Y-146769047D01*
X121411429Y-146769047D02*
X121459048Y-146959523D01*
X121459048Y-146959523D02*
X121506667Y-147054761D01*
X121506667Y-147054761D02*
X121601905Y-147150000D01*
X121601905Y-147150000D02*
X121744762Y-147197619D01*
X121744762Y-147197619D02*
X121840000Y-147197619D01*
X121840000Y-147197619D02*
X121982857Y-147150000D01*
X121982857Y-147150000D02*
X122030476Y-147102380D01*
X122030476Y-147102380D02*
X122030476Y-146769047D01*
X122030476Y-146769047D02*
X121840000Y-146769047D01*
%TO.C,R4*%
X112863333Y-132712619D02*
X112530000Y-132236428D01*
X112291905Y-132712619D02*
X112291905Y-131712619D01*
X112291905Y-131712619D02*
X112672857Y-131712619D01*
X112672857Y-131712619D02*
X112768095Y-131760238D01*
X112768095Y-131760238D02*
X112815714Y-131807857D01*
X112815714Y-131807857D02*
X112863333Y-131903095D01*
X112863333Y-131903095D02*
X112863333Y-132045952D01*
X112863333Y-132045952D02*
X112815714Y-132141190D01*
X112815714Y-132141190D02*
X112768095Y-132188809D01*
X112768095Y-132188809D02*
X112672857Y-132236428D01*
X112672857Y-132236428D02*
X112291905Y-132236428D01*
X113720476Y-132045952D02*
X113720476Y-132712619D01*
X113482381Y-131665000D02*
X113244286Y-132379285D01*
X113244286Y-132379285D02*
X113863333Y-132379285D01*
%TO.C,R5*%
X135723333Y-150152619D02*
X135390000Y-149676428D01*
X135151905Y-150152619D02*
X135151905Y-149152619D01*
X135151905Y-149152619D02*
X135532857Y-149152619D01*
X135532857Y-149152619D02*
X135628095Y-149200238D01*
X135628095Y-149200238D02*
X135675714Y-149247857D01*
X135675714Y-149247857D02*
X135723333Y-149343095D01*
X135723333Y-149343095D02*
X135723333Y-149485952D01*
X135723333Y-149485952D02*
X135675714Y-149581190D01*
X135675714Y-149581190D02*
X135628095Y-149628809D01*
X135628095Y-149628809D02*
X135532857Y-149676428D01*
X135532857Y-149676428D02*
X135151905Y-149676428D01*
X136628095Y-149152619D02*
X136151905Y-149152619D01*
X136151905Y-149152619D02*
X136104286Y-149628809D01*
X136104286Y-149628809D02*
X136151905Y-149581190D01*
X136151905Y-149581190D02*
X136247143Y-149533571D01*
X136247143Y-149533571D02*
X136485238Y-149533571D01*
X136485238Y-149533571D02*
X136580476Y-149581190D01*
X136580476Y-149581190D02*
X136628095Y-149628809D01*
X136628095Y-149628809D02*
X136675714Y-149724047D01*
X136675714Y-149724047D02*
X136675714Y-149962142D01*
X136675714Y-149962142D02*
X136628095Y-150057380D01*
X136628095Y-150057380D02*
X136580476Y-150105000D01*
X136580476Y-150105000D02*
X136485238Y-150152619D01*
X136485238Y-150152619D02*
X136247143Y-150152619D01*
X136247143Y-150152619D02*
X136151905Y-150105000D01*
X136151905Y-150105000D02*
X136104286Y-150057380D01*
%TO.C,C2*%
X111633333Y-119437380D02*
X111585714Y-119485000D01*
X111585714Y-119485000D02*
X111442857Y-119532619D01*
X111442857Y-119532619D02*
X111347619Y-119532619D01*
X111347619Y-119532619D02*
X111204762Y-119485000D01*
X111204762Y-119485000D02*
X111109524Y-119389761D01*
X111109524Y-119389761D02*
X111061905Y-119294523D01*
X111061905Y-119294523D02*
X111014286Y-119104047D01*
X111014286Y-119104047D02*
X111014286Y-118961190D01*
X111014286Y-118961190D02*
X111061905Y-118770714D01*
X111061905Y-118770714D02*
X111109524Y-118675476D01*
X111109524Y-118675476D02*
X111204762Y-118580238D01*
X111204762Y-118580238D02*
X111347619Y-118532619D01*
X111347619Y-118532619D02*
X111442857Y-118532619D01*
X111442857Y-118532619D02*
X111585714Y-118580238D01*
X111585714Y-118580238D02*
X111633333Y-118627857D01*
X112014286Y-118627857D02*
X112061905Y-118580238D01*
X112061905Y-118580238D02*
X112157143Y-118532619D01*
X112157143Y-118532619D02*
X112395238Y-118532619D01*
X112395238Y-118532619D02*
X112490476Y-118580238D01*
X112490476Y-118580238D02*
X112538095Y-118627857D01*
X112538095Y-118627857D02*
X112585714Y-118723095D01*
X112585714Y-118723095D02*
X112585714Y-118818333D01*
X112585714Y-118818333D02*
X112538095Y-118961190D01*
X112538095Y-118961190D02*
X111966667Y-119532619D01*
X111966667Y-119532619D02*
X112585714Y-119532619D01*
%TO.C,J4*%
X146986666Y-110992619D02*
X146986666Y-111706904D01*
X146986666Y-111706904D02*
X146939047Y-111849761D01*
X146939047Y-111849761D02*
X146843809Y-111945000D01*
X146843809Y-111945000D02*
X146700952Y-111992619D01*
X146700952Y-111992619D02*
X146605714Y-111992619D01*
X147891428Y-111325952D02*
X147891428Y-111992619D01*
X147653333Y-110945000D02*
X147415238Y-111659285D01*
X147415238Y-111659285D02*
X148034285Y-111659285D01*
%TO.C,MCLR1*%
X145105714Y-101832619D02*
X145105714Y-100832619D01*
X145105714Y-100832619D02*
X145439047Y-101546904D01*
X145439047Y-101546904D02*
X145772380Y-100832619D01*
X145772380Y-100832619D02*
X145772380Y-101832619D01*
X146819999Y-101737380D02*
X146772380Y-101785000D01*
X146772380Y-101785000D02*
X146629523Y-101832619D01*
X146629523Y-101832619D02*
X146534285Y-101832619D01*
X146534285Y-101832619D02*
X146391428Y-101785000D01*
X146391428Y-101785000D02*
X146296190Y-101689761D01*
X146296190Y-101689761D02*
X146248571Y-101594523D01*
X146248571Y-101594523D02*
X146200952Y-101404047D01*
X146200952Y-101404047D02*
X146200952Y-101261190D01*
X146200952Y-101261190D02*
X146248571Y-101070714D01*
X146248571Y-101070714D02*
X146296190Y-100975476D01*
X146296190Y-100975476D02*
X146391428Y-100880238D01*
X146391428Y-100880238D02*
X146534285Y-100832619D01*
X146534285Y-100832619D02*
X146629523Y-100832619D01*
X146629523Y-100832619D02*
X146772380Y-100880238D01*
X146772380Y-100880238D02*
X146819999Y-100927857D01*
X147724761Y-101832619D02*
X147248571Y-101832619D01*
X147248571Y-101832619D02*
X147248571Y-100832619D01*
X148629523Y-101832619D02*
X148296190Y-101356428D01*
X148058095Y-101832619D02*
X148058095Y-100832619D01*
X148058095Y-100832619D02*
X148439047Y-100832619D01*
X148439047Y-100832619D02*
X148534285Y-100880238D01*
X148534285Y-100880238D02*
X148581904Y-100927857D01*
X148581904Y-100927857D02*
X148629523Y-101023095D01*
X148629523Y-101023095D02*
X148629523Y-101165952D01*
X148629523Y-101165952D02*
X148581904Y-101261190D01*
X148581904Y-101261190D02*
X148534285Y-101308809D01*
X148534285Y-101308809D02*
X148439047Y-101356428D01*
X148439047Y-101356428D02*
X148058095Y-101356428D01*
X149581904Y-101832619D02*
X149010476Y-101832619D01*
X149296190Y-101832619D02*
X149296190Y-100832619D01*
X149296190Y-100832619D02*
X149200952Y-100975476D01*
X149200952Y-100975476D02*
X149105714Y-101070714D01*
X149105714Y-101070714D02*
X149010476Y-101118333D01*
%TO.C,R3*%
X138263333Y-112392619D02*
X137930000Y-111916428D01*
X137691905Y-112392619D02*
X137691905Y-111392619D01*
X137691905Y-111392619D02*
X138072857Y-111392619D01*
X138072857Y-111392619D02*
X138168095Y-111440238D01*
X138168095Y-111440238D02*
X138215714Y-111487857D01*
X138215714Y-111487857D02*
X138263333Y-111583095D01*
X138263333Y-111583095D02*
X138263333Y-111725952D01*
X138263333Y-111725952D02*
X138215714Y-111821190D01*
X138215714Y-111821190D02*
X138168095Y-111868809D01*
X138168095Y-111868809D02*
X138072857Y-111916428D01*
X138072857Y-111916428D02*
X137691905Y-111916428D01*
X138596667Y-111392619D02*
X139215714Y-111392619D01*
X139215714Y-111392619D02*
X138882381Y-111773571D01*
X138882381Y-111773571D02*
X139025238Y-111773571D01*
X139025238Y-111773571D02*
X139120476Y-111821190D01*
X139120476Y-111821190D02*
X139168095Y-111868809D01*
X139168095Y-111868809D02*
X139215714Y-111964047D01*
X139215714Y-111964047D02*
X139215714Y-112202142D01*
X139215714Y-112202142D02*
X139168095Y-112297380D01*
X139168095Y-112297380D02*
X139120476Y-112345000D01*
X139120476Y-112345000D02*
X139025238Y-112392619D01*
X139025238Y-112392619D02*
X138739524Y-112392619D01*
X138739524Y-112392619D02*
X138644286Y-112345000D01*
X138644286Y-112345000D02*
X138596667Y-112297380D01*
%TO.C,C4*%
X135743333Y-107287380D02*
X135695714Y-107335000D01*
X135695714Y-107335000D02*
X135552857Y-107382619D01*
X135552857Y-107382619D02*
X135457619Y-107382619D01*
X135457619Y-107382619D02*
X135314762Y-107335000D01*
X135314762Y-107335000D02*
X135219524Y-107239761D01*
X135219524Y-107239761D02*
X135171905Y-107144523D01*
X135171905Y-107144523D02*
X135124286Y-106954047D01*
X135124286Y-106954047D02*
X135124286Y-106811190D01*
X135124286Y-106811190D02*
X135171905Y-106620714D01*
X135171905Y-106620714D02*
X135219524Y-106525476D01*
X135219524Y-106525476D02*
X135314762Y-106430238D01*
X135314762Y-106430238D02*
X135457619Y-106382619D01*
X135457619Y-106382619D02*
X135552857Y-106382619D01*
X135552857Y-106382619D02*
X135695714Y-106430238D01*
X135695714Y-106430238D02*
X135743333Y-106477857D01*
X136600476Y-106715952D02*
X136600476Y-107382619D01*
X136362381Y-106335000D02*
X136124286Y-107049285D01*
X136124286Y-107049285D02*
X136743333Y-107049285D01*
%TO.C,D2*%
X115182619Y-146788094D02*
X114182619Y-146788094D01*
X114182619Y-146788094D02*
X114182619Y-146549999D01*
X114182619Y-146549999D02*
X114230238Y-146407142D01*
X114230238Y-146407142D02*
X114325476Y-146311904D01*
X114325476Y-146311904D02*
X114420714Y-146264285D01*
X114420714Y-146264285D02*
X114611190Y-146216666D01*
X114611190Y-146216666D02*
X114754047Y-146216666D01*
X114754047Y-146216666D02*
X114944523Y-146264285D01*
X114944523Y-146264285D02*
X115039761Y-146311904D01*
X115039761Y-146311904D02*
X115135000Y-146407142D01*
X115135000Y-146407142D02*
X115182619Y-146549999D01*
X115182619Y-146549999D02*
X115182619Y-146788094D01*
X114277857Y-145835713D02*
X114230238Y-145788094D01*
X114230238Y-145788094D02*
X114182619Y-145692856D01*
X114182619Y-145692856D02*
X114182619Y-145454761D01*
X114182619Y-145454761D02*
X114230238Y-145359523D01*
X114230238Y-145359523D02*
X114277857Y-145311904D01*
X114277857Y-145311904D02*
X114373095Y-145264285D01*
X114373095Y-145264285D02*
X114468333Y-145264285D01*
X114468333Y-145264285D02*
X114611190Y-145311904D01*
X114611190Y-145311904D02*
X115182619Y-145883332D01*
X115182619Y-145883332D02*
X115182619Y-145264285D01*
%TO.C,C6*%
X137033333Y-127057380D02*
X136985714Y-127105000D01*
X136985714Y-127105000D02*
X136842857Y-127152619D01*
X136842857Y-127152619D02*
X136747619Y-127152619D01*
X136747619Y-127152619D02*
X136604762Y-127105000D01*
X136604762Y-127105000D02*
X136509524Y-127009761D01*
X136509524Y-127009761D02*
X136461905Y-126914523D01*
X136461905Y-126914523D02*
X136414286Y-126724047D01*
X136414286Y-126724047D02*
X136414286Y-126581190D01*
X136414286Y-126581190D02*
X136461905Y-126390714D01*
X136461905Y-126390714D02*
X136509524Y-126295476D01*
X136509524Y-126295476D02*
X136604762Y-126200238D01*
X136604762Y-126200238D02*
X136747619Y-126152619D01*
X136747619Y-126152619D02*
X136842857Y-126152619D01*
X136842857Y-126152619D02*
X136985714Y-126200238D01*
X136985714Y-126200238D02*
X137033333Y-126247857D01*
X137890476Y-126152619D02*
X137700000Y-126152619D01*
X137700000Y-126152619D02*
X137604762Y-126200238D01*
X137604762Y-126200238D02*
X137557143Y-126247857D01*
X137557143Y-126247857D02*
X137461905Y-126390714D01*
X137461905Y-126390714D02*
X137414286Y-126581190D01*
X137414286Y-126581190D02*
X137414286Y-126962142D01*
X137414286Y-126962142D02*
X137461905Y-127057380D01*
X137461905Y-127057380D02*
X137509524Y-127105000D01*
X137509524Y-127105000D02*
X137604762Y-127152619D01*
X137604762Y-127152619D02*
X137795238Y-127152619D01*
X137795238Y-127152619D02*
X137890476Y-127105000D01*
X137890476Y-127105000D02*
X137938095Y-127057380D01*
X137938095Y-127057380D02*
X137985714Y-126962142D01*
X137985714Y-126962142D02*
X137985714Y-126724047D01*
X137985714Y-126724047D02*
X137938095Y-126628809D01*
X137938095Y-126628809D02*
X137890476Y-126581190D01*
X137890476Y-126581190D02*
X137795238Y-126533571D01*
X137795238Y-126533571D02*
X137604762Y-126533571D01*
X137604762Y-126533571D02*
X137509524Y-126581190D01*
X137509524Y-126581190D02*
X137461905Y-126628809D01*
X137461905Y-126628809D02*
X137414286Y-126724047D01*
%TO.C,PIC32MX170F256B1*%
X118468095Y-107352619D02*
X118468095Y-106352619D01*
X118468095Y-106352619D02*
X118849047Y-106352619D01*
X118849047Y-106352619D02*
X118944285Y-106400238D01*
X118944285Y-106400238D02*
X118991904Y-106447857D01*
X118991904Y-106447857D02*
X119039523Y-106543095D01*
X119039523Y-106543095D02*
X119039523Y-106685952D01*
X119039523Y-106685952D02*
X118991904Y-106781190D01*
X118991904Y-106781190D02*
X118944285Y-106828809D01*
X118944285Y-106828809D02*
X118849047Y-106876428D01*
X118849047Y-106876428D02*
X118468095Y-106876428D01*
X119468095Y-107352619D02*
X119468095Y-106352619D01*
X120515713Y-107257380D02*
X120468094Y-107305000D01*
X120468094Y-107305000D02*
X120325237Y-107352619D01*
X120325237Y-107352619D02*
X120229999Y-107352619D01*
X120229999Y-107352619D02*
X120087142Y-107305000D01*
X120087142Y-107305000D02*
X119991904Y-107209761D01*
X119991904Y-107209761D02*
X119944285Y-107114523D01*
X119944285Y-107114523D02*
X119896666Y-106924047D01*
X119896666Y-106924047D02*
X119896666Y-106781190D01*
X119896666Y-106781190D02*
X119944285Y-106590714D01*
X119944285Y-106590714D02*
X119991904Y-106495476D01*
X119991904Y-106495476D02*
X120087142Y-106400238D01*
X120087142Y-106400238D02*
X120229999Y-106352619D01*
X120229999Y-106352619D02*
X120325237Y-106352619D01*
X120325237Y-106352619D02*
X120468094Y-106400238D01*
X120468094Y-106400238D02*
X120515713Y-106447857D01*
X120849047Y-106352619D02*
X121468094Y-106352619D01*
X121468094Y-106352619D02*
X121134761Y-106733571D01*
X121134761Y-106733571D02*
X121277618Y-106733571D01*
X121277618Y-106733571D02*
X121372856Y-106781190D01*
X121372856Y-106781190D02*
X121420475Y-106828809D01*
X121420475Y-106828809D02*
X121468094Y-106924047D01*
X121468094Y-106924047D02*
X121468094Y-107162142D01*
X121468094Y-107162142D02*
X121420475Y-107257380D01*
X121420475Y-107257380D02*
X121372856Y-107305000D01*
X121372856Y-107305000D02*
X121277618Y-107352619D01*
X121277618Y-107352619D02*
X120991904Y-107352619D01*
X120991904Y-107352619D02*
X120896666Y-107305000D01*
X120896666Y-107305000D02*
X120849047Y-107257380D01*
X121849047Y-106447857D02*
X121896666Y-106400238D01*
X121896666Y-106400238D02*
X121991904Y-106352619D01*
X121991904Y-106352619D02*
X122229999Y-106352619D01*
X122229999Y-106352619D02*
X122325237Y-106400238D01*
X122325237Y-106400238D02*
X122372856Y-106447857D01*
X122372856Y-106447857D02*
X122420475Y-106543095D01*
X122420475Y-106543095D02*
X122420475Y-106638333D01*
X122420475Y-106638333D02*
X122372856Y-106781190D01*
X122372856Y-106781190D02*
X121801428Y-107352619D01*
X121801428Y-107352619D02*
X122420475Y-107352619D01*
X122849047Y-107352619D02*
X122849047Y-106352619D01*
X122849047Y-106352619D02*
X123182380Y-107066904D01*
X123182380Y-107066904D02*
X123515713Y-106352619D01*
X123515713Y-106352619D02*
X123515713Y-107352619D01*
X123896666Y-106352619D02*
X124563332Y-107352619D01*
X124563332Y-106352619D02*
X123896666Y-107352619D01*
X125468094Y-107352619D02*
X124896666Y-107352619D01*
X125182380Y-107352619D02*
X125182380Y-106352619D01*
X125182380Y-106352619D02*
X125087142Y-106495476D01*
X125087142Y-106495476D02*
X124991904Y-106590714D01*
X124991904Y-106590714D02*
X124896666Y-106638333D01*
X125801428Y-106352619D02*
X126468094Y-106352619D01*
X126468094Y-106352619D02*
X126039523Y-107352619D01*
X127039523Y-106352619D02*
X127134761Y-106352619D01*
X127134761Y-106352619D02*
X127229999Y-106400238D01*
X127229999Y-106400238D02*
X127277618Y-106447857D01*
X127277618Y-106447857D02*
X127325237Y-106543095D01*
X127325237Y-106543095D02*
X127372856Y-106733571D01*
X127372856Y-106733571D02*
X127372856Y-106971666D01*
X127372856Y-106971666D02*
X127325237Y-107162142D01*
X127325237Y-107162142D02*
X127277618Y-107257380D01*
X127277618Y-107257380D02*
X127229999Y-107305000D01*
X127229999Y-107305000D02*
X127134761Y-107352619D01*
X127134761Y-107352619D02*
X127039523Y-107352619D01*
X127039523Y-107352619D02*
X126944285Y-107305000D01*
X126944285Y-107305000D02*
X126896666Y-107257380D01*
X126896666Y-107257380D02*
X126849047Y-107162142D01*
X126849047Y-107162142D02*
X126801428Y-106971666D01*
X126801428Y-106971666D02*
X126801428Y-106733571D01*
X126801428Y-106733571D02*
X126849047Y-106543095D01*
X126849047Y-106543095D02*
X126896666Y-106447857D01*
X126896666Y-106447857D02*
X126944285Y-106400238D01*
X126944285Y-106400238D02*
X127039523Y-106352619D01*
X128134761Y-106828809D02*
X127801428Y-106828809D01*
X127801428Y-107352619D02*
X127801428Y-106352619D01*
X127801428Y-106352619D02*
X128277618Y-106352619D01*
X128610952Y-106447857D02*
X128658571Y-106400238D01*
X128658571Y-106400238D02*
X128753809Y-106352619D01*
X128753809Y-106352619D02*
X128991904Y-106352619D01*
X128991904Y-106352619D02*
X129087142Y-106400238D01*
X129087142Y-106400238D02*
X129134761Y-106447857D01*
X129134761Y-106447857D02*
X129182380Y-106543095D01*
X129182380Y-106543095D02*
X129182380Y-106638333D01*
X129182380Y-106638333D02*
X129134761Y-106781190D01*
X129134761Y-106781190D02*
X128563333Y-107352619D01*
X128563333Y-107352619D02*
X129182380Y-107352619D01*
X130087142Y-106352619D02*
X129610952Y-106352619D01*
X129610952Y-106352619D02*
X129563333Y-106828809D01*
X129563333Y-106828809D02*
X129610952Y-106781190D01*
X129610952Y-106781190D02*
X129706190Y-106733571D01*
X129706190Y-106733571D02*
X129944285Y-106733571D01*
X129944285Y-106733571D02*
X130039523Y-106781190D01*
X130039523Y-106781190D02*
X130087142Y-106828809D01*
X130087142Y-106828809D02*
X130134761Y-106924047D01*
X130134761Y-106924047D02*
X130134761Y-107162142D01*
X130134761Y-107162142D02*
X130087142Y-107257380D01*
X130087142Y-107257380D02*
X130039523Y-107305000D01*
X130039523Y-107305000D02*
X129944285Y-107352619D01*
X129944285Y-107352619D02*
X129706190Y-107352619D01*
X129706190Y-107352619D02*
X129610952Y-107305000D01*
X129610952Y-107305000D02*
X129563333Y-107257380D01*
X130991904Y-106352619D02*
X130801428Y-106352619D01*
X130801428Y-106352619D02*
X130706190Y-106400238D01*
X130706190Y-106400238D02*
X130658571Y-106447857D01*
X130658571Y-106447857D02*
X130563333Y-106590714D01*
X130563333Y-106590714D02*
X130515714Y-106781190D01*
X130515714Y-106781190D02*
X130515714Y-107162142D01*
X130515714Y-107162142D02*
X130563333Y-107257380D01*
X130563333Y-107257380D02*
X130610952Y-107305000D01*
X130610952Y-107305000D02*
X130706190Y-107352619D01*
X130706190Y-107352619D02*
X130896666Y-107352619D01*
X130896666Y-107352619D02*
X130991904Y-107305000D01*
X130991904Y-107305000D02*
X131039523Y-107257380D01*
X131039523Y-107257380D02*
X131087142Y-107162142D01*
X131087142Y-107162142D02*
X131087142Y-106924047D01*
X131087142Y-106924047D02*
X131039523Y-106828809D01*
X131039523Y-106828809D02*
X130991904Y-106781190D01*
X130991904Y-106781190D02*
X130896666Y-106733571D01*
X130896666Y-106733571D02*
X130706190Y-106733571D01*
X130706190Y-106733571D02*
X130610952Y-106781190D01*
X130610952Y-106781190D02*
X130563333Y-106828809D01*
X130563333Y-106828809D02*
X130515714Y-106924047D01*
X131849047Y-106828809D02*
X131991904Y-106876428D01*
X131991904Y-106876428D02*
X132039523Y-106924047D01*
X132039523Y-106924047D02*
X132087142Y-107019285D01*
X132087142Y-107019285D02*
X132087142Y-107162142D01*
X132087142Y-107162142D02*
X132039523Y-107257380D01*
X132039523Y-107257380D02*
X131991904Y-107305000D01*
X131991904Y-107305000D02*
X131896666Y-107352619D01*
X131896666Y-107352619D02*
X131515714Y-107352619D01*
X131515714Y-107352619D02*
X131515714Y-106352619D01*
X131515714Y-106352619D02*
X131849047Y-106352619D01*
X131849047Y-106352619D02*
X131944285Y-106400238D01*
X131944285Y-106400238D02*
X131991904Y-106447857D01*
X131991904Y-106447857D02*
X132039523Y-106543095D01*
X132039523Y-106543095D02*
X132039523Y-106638333D01*
X132039523Y-106638333D02*
X131991904Y-106733571D01*
X131991904Y-106733571D02*
X131944285Y-106781190D01*
X131944285Y-106781190D02*
X131849047Y-106828809D01*
X131849047Y-106828809D02*
X131515714Y-106828809D01*
X133039523Y-107352619D02*
X132468095Y-107352619D01*
X132753809Y-107352619D02*
X132753809Y-106352619D01*
X132753809Y-106352619D02*
X132658571Y-106495476D01*
X132658571Y-106495476D02*
X132563333Y-106590714D01*
X132563333Y-106590714D02*
X132468095Y-106638333D01*
%TO.C,R1*%
X112863333Y-107312619D02*
X112530000Y-106836428D01*
X112291905Y-107312619D02*
X112291905Y-106312619D01*
X112291905Y-106312619D02*
X112672857Y-106312619D01*
X112672857Y-106312619D02*
X112768095Y-106360238D01*
X112768095Y-106360238D02*
X112815714Y-106407857D01*
X112815714Y-106407857D02*
X112863333Y-106503095D01*
X112863333Y-106503095D02*
X112863333Y-106645952D01*
X112863333Y-106645952D02*
X112815714Y-106741190D01*
X112815714Y-106741190D02*
X112768095Y-106788809D01*
X112768095Y-106788809D02*
X112672857Y-106836428D01*
X112672857Y-106836428D02*
X112291905Y-106836428D01*
X113815714Y-107312619D02*
X113244286Y-107312619D01*
X113530000Y-107312619D02*
X113530000Y-106312619D01*
X113530000Y-106312619D02*
X113434762Y-106455476D01*
X113434762Y-106455476D02*
X113339524Y-106550714D01*
X113339524Y-106550714D02*
X113244286Y-106598333D01*
%TO.C,CP2102N1*%
X101044761Y-145377380D02*
X100997142Y-145425000D01*
X100997142Y-145425000D02*
X100854285Y-145472619D01*
X100854285Y-145472619D02*
X100759047Y-145472619D01*
X100759047Y-145472619D02*
X100616190Y-145425000D01*
X100616190Y-145425000D02*
X100520952Y-145329761D01*
X100520952Y-145329761D02*
X100473333Y-145234523D01*
X100473333Y-145234523D02*
X100425714Y-145044047D01*
X100425714Y-145044047D02*
X100425714Y-144901190D01*
X100425714Y-144901190D02*
X100473333Y-144710714D01*
X100473333Y-144710714D02*
X100520952Y-144615476D01*
X100520952Y-144615476D02*
X100616190Y-144520238D01*
X100616190Y-144520238D02*
X100759047Y-144472619D01*
X100759047Y-144472619D02*
X100854285Y-144472619D01*
X100854285Y-144472619D02*
X100997142Y-144520238D01*
X100997142Y-144520238D02*
X101044761Y-144567857D01*
X101473333Y-145472619D02*
X101473333Y-144472619D01*
X101473333Y-144472619D02*
X101854285Y-144472619D01*
X101854285Y-144472619D02*
X101949523Y-144520238D01*
X101949523Y-144520238D02*
X101997142Y-144567857D01*
X101997142Y-144567857D02*
X102044761Y-144663095D01*
X102044761Y-144663095D02*
X102044761Y-144805952D01*
X102044761Y-144805952D02*
X101997142Y-144901190D01*
X101997142Y-144901190D02*
X101949523Y-144948809D01*
X101949523Y-144948809D02*
X101854285Y-144996428D01*
X101854285Y-144996428D02*
X101473333Y-144996428D01*
X102425714Y-144567857D02*
X102473333Y-144520238D01*
X102473333Y-144520238D02*
X102568571Y-144472619D01*
X102568571Y-144472619D02*
X102806666Y-144472619D01*
X102806666Y-144472619D02*
X102901904Y-144520238D01*
X102901904Y-144520238D02*
X102949523Y-144567857D01*
X102949523Y-144567857D02*
X102997142Y-144663095D01*
X102997142Y-144663095D02*
X102997142Y-144758333D01*
X102997142Y-144758333D02*
X102949523Y-144901190D01*
X102949523Y-144901190D02*
X102378095Y-145472619D01*
X102378095Y-145472619D02*
X102997142Y-145472619D01*
X103949523Y-145472619D02*
X103378095Y-145472619D01*
X103663809Y-145472619D02*
X103663809Y-144472619D01*
X103663809Y-144472619D02*
X103568571Y-144615476D01*
X103568571Y-144615476D02*
X103473333Y-144710714D01*
X103473333Y-144710714D02*
X103378095Y-144758333D01*
X104568571Y-144472619D02*
X104663809Y-144472619D01*
X104663809Y-144472619D02*
X104759047Y-144520238D01*
X104759047Y-144520238D02*
X104806666Y-144567857D01*
X104806666Y-144567857D02*
X104854285Y-144663095D01*
X104854285Y-144663095D02*
X104901904Y-144853571D01*
X104901904Y-144853571D02*
X104901904Y-145091666D01*
X104901904Y-145091666D02*
X104854285Y-145282142D01*
X104854285Y-145282142D02*
X104806666Y-145377380D01*
X104806666Y-145377380D02*
X104759047Y-145425000D01*
X104759047Y-145425000D02*
X104663809Y-145472619D01*
X104663809Y-145472619D02*
X104568571Y-145472619D01*
X104568571Y-145472619D02*
X104473333Y-145425000D01*
X104473333Y-145425000D02*
X104425714Y-145377380D01*
X104425714Y-145377380D02*
X104378095Y-145282142D01*
X104378095Y-145282142D02*
X104330476Y-145091666D01*
X104330476Y-145091666D02*
X104330476Y-144853571D01*
X104330476Y-144853571D02*
X104378095Y-144663095D01*
X104378095Y-144663095D02*
X104425714Y-144567857D01*
X104425714Y-144567857D02*
X104473333Y-144520238D01*
X104473333Y-144520238D02*
X104568571Y-144472619D01*
X105282857Y-144567857D02*
X105330476Y-144520238D01*
X105330476Y-144520238D02*
X105425714Y-144472619D01*
X105425714Y-144472619D02*
X105663809Y-144472619D01*
X105663809Y-144472619D02*
X105759047Y-144520238D01*
X105759047Y-144520238D02*
X105806666Y-144567857D01*
X105806666Y-144567857D02*
X105854285Y-144663095D01*
X105854285Y-144663095D02*
X105854285Y-144758333D01*
X105854285Y-144758333D02*
X105806666Y-144901190D01*
X105806666Y-144901190D02*
X105235238Y-145472619D01*
X105235238Y-145472619D02*
X105854285Y-145472619D01*
X106282857Y-145472619D02*
X106282857Y-144472619D01*
X106282857Y-144472619D02*
X106854285Y-145472619D01*
X106854285Y-145472619D02*
X106854285Y-144472619D01*
X107854285Y-145472619D02*
X107282857Y-145472619D01*
X107568571Y-145472619D02*
X107568571Y-144472619D01*
X107568571Y-144472619D02*
X107473333Y-144615476D01*
X107473333Y-144615476D02*
X107378095Y-144710714D01*
X107378095Y-144710714D02*
X107282857Y-144758333D01*
%TO.C,J2*%
X103806666Y-108452619D02*
X103806666Y-109166904D01*
X103806666Y-109166904D02*
X103759047Y-109309761D01*
X103759047Y-109309761D02*
X103663809Y-109405000D01*
X103663809Y-109405000D02*
X103520952Y-109452619D01*
X103520952Y-109452619D02*
X103425714Y-109452619D01*
X104235238Y-108547857D02*
X104282857Y-108500238D01*
X104282857Y-108500238D02*
X104378095Y-108452619D01*
X104378095Y-108452619D02*
X104616190Y-108452619D01*
X104616190Y-108452619D02*
X104711428Y-108500238D01*
X104711428Y-108500238D02*
X104759047Y-108547857D01*
X104759047Y-108547857D02*
X104806666Y-108643095D01*
X104806666Y-108643095D02*
X104806666Y-108738333D01*
X104806666Y-108738333D02*
X104759047Y-108881190D01*
X104759047Y-108881190D02*
X104187619Y-109452619D01*
X104187619Y-109452619D02*
X104806666Y-109452619D01*
%TO.C,R2*%
X112863333Y-112392619D02*
X112530000Y-111916428D01*
X112291905Y-112392619D02*
X112291905Y-111392619D01*
X112291905Y-111392619D02*
X112672857Y-111392619D01*
X112672857Y-111392619D02*
X112768095Y-111440238D01*
X112768095Y-111440238D02*
X112815714Y-111487857D01*
X112815714Y-111487857D02*
X112863333Y-111583095D01*
X112863333Y-111583095D02*
X112863333Y-111725952D01*
X112863333Y-111725952D02*
X112815714Y-111821190D01*
X112815714Y-111821190D02*
X112768095Y-111868809D01*
X112768095Y-111868809D02*
X112672857Y-111916428D01*
X112672857Y-111916428D02*
X112291905Y-111916428D01*
X113244286Y-111487857D02*
X113291905Y-111440238D01*
X113291905Y-111440238D02*
X113387143Y-111392619D01*
X113387143Y-111392619D02*
X113625238Y-111392619D01*
X113625238Y-111392619D02*
X113720476Y-111440238D01*
X113720476Y-111440238D02*
X113768095Y-111487857D01*
X113768095Y-111487857D02*
X113815714Y-111583095D01*
X113815714Y-111583095D02*
X113815714Y-111678333D01*
X113815714Y-111678333D02*
X113768095Y-111821190D01*
X113768095Y-111821190D02*
X113196667Y-112392619D01*
X113196667Y-112392619D02*
X113815714Y-112392619D01*
%TO.C,C5*%
X115423333Y-137767380D02*
X115375714Y-137815000D01*
X115375714Y-137815000D02*
X115232857Y-137862619D01*
X115232857Y-137862619D02*
X115137619Y-137862619D01*
X115137619Y-137862619D02*
X114994762Y-137815000D01*
X114994762Y-137815000D02*
X114899524Y-137719761D01*
X114899524Y-137719761D02*
X114851905Y-137624523D01*
X114851905Y-137624523D02*
X114804286Y-137434047D01*
X114804286Y-137434047D02*
X114804286Y-137291190D01*
X114804286Y-137291190D02*
X114851905Y-137100714D01*
X114851905Y-137100714D02*
X114899524Y-137005476D01*
X114899524Y-137005476D02*
X114994762Y-136910238D01*
X114994762Y-136910238D02*
X115137619Y-136862619D01*
X115137619Y-136862619D02*
X115232857Y-136862619D01*
X115232857Y-136862619D02*
X115375714Y-136910238D01*
X115375714Y-136910238D02*
X115423333Y-136957857D01*
X116328095Y-136862619D02*
X115851905Y-136862619D01*
X115851905Y-136862619D02*
X115804286Y-137338809D01*
X115804286Y-137338809D02*
X115851905Y-137291190D01*
X115851905Y-137291190D02*
X115947143Y-137243571D01*
X115947143Y-137243571D02*
X116185238Y-137243571D01*
X116185238Y-137243571D02*
X116280476Y-137291190D01*
X116280476Y-137291190D02*
X116328095Y-137338809D01*
X116328095Y-137338809D02*
X116375714Y-137434047D01*
X116375714Y-137434047D02*
X116375714Y-137672142D01*
X116375714Y-137672142D02*
X116328095Y-137767380D01*
X116328095Y-137767380D02*
X116280476Y-137815000D01*
X116280476Y-137815000D02*
X116185238Y-137862619D01*
X116185238Y-137862619D02*
X115947143Y-137862619D01*
X115947143Y-137862619D02*
X115851905Y-137815000D01*
X115851905Y-137815000D02*
X115804286Y-137767380D01*
%TO.C,C1*%
X111633333Y-124517380D02*
X111585714Y-124565000D01*
X111585714Y-124565000D02*
X111442857Y-124612619D01*
X111442857Y-124612619D02*
X111347619Y-124612619D01*
X111347619Y-124612619D02*
X111204762Y-124565000D01*
X111204762Y-124565000D02*
X111109524Y-124469761D01*
X111109524Y-124469761D02*
X111061905Y-124374523D01*
X111061905Y-124374523D02*
X111014286Y-124184047D01*
X111014286Y-124184047D02*
X111014286Y-124041190D01*
X111014286Y-124041190D02*
X111061905Y-123850714D01*
X111061905Y-123850714D02*
X111109524Y-123755476D01*
X111109524Y-123755476D02*
X111204762Y-123660238D01*
X111204762Y-123660238D02*
X111347619Y-123612619D01*
X111347619Y-123612619D02*
X111442857Y-123612619D01*
X111442857Y-123612619D02*
X111585714Y-123660238D01*
X111585714Y-123660238D02*
X111633333Y-123707857D01*
X112585714Y-124612619D02*
X112014286Y-124612619D01*
X112300000Y-124612619D02*
X112300000Y-123612619D01*
X112300000Y-123612619D02*
X112204762Y-123755476D01*
X112204762Y-123755476D02*
X112109524Y-123850714D01*
X112109524Y-123850714D02*
X112014286Y-123898333D01*
D11*
%TO.C,Slide1*%
X113942856Y-111345000D02*
X113799999Y-111297380D01*
X113799999Y-111297380D02*
X113561904Y-111297380D01*
X113561904Y-111297380D02*
X113466666Y-111345000D01*
X113466666Y-111345000D02*
X113419047Y-111392619D01*
X113419047Y-111392619D02*
X113371428Y-111487857D01*
X113371428Y-111487857D02*
X113371428Y-111583095D01*
X113371428Y-111583095D02*
X113419047Y-111678333D01*
X113419047Y-111678333D02*
X113466666Y-111725952D01*
X113466666Y-111725952D02*
X113561904Y-111773571D01*
X113561904Y-111773571D02*
X113752380Y-111821190D01*
X113752380Y-111821190D02*
X113847618Y-111868809D01*
X113847618Y-111868809D02*
X113895237Y-111916428D01*
X113895237Y-111916428D02*
X113942856Y-112011666D01*
X113942856Y-112011666D02*
X113942856Y-112106904D01*
X113942856Y-112106904D02*
X113895237Y-112202142D01*
X113895237Y-112202142D02*
X113847618Y-112249761D01*
X113847618Y-112249761D02*
X113752380Y-112297380D01*
X113752380Y-112297380D02*
X113514285Y-112297380D01*
X113514285Y-112297380D02*
X113371428Y-112249761D01*
X112799999Y-111297380D02*
X112895237Y-111345000D01*
X112895237Y-111345000D02*
X112942856Y-111440238D01*
X112942856Y-111440238D02*
X112942856Y-112297380D01*
X112419046Y-111297380D02*
X112419046Y-111964047D01*
X112419046Y-112297380D02*
X112466665Y-112249761D01*
X112466665Y-112249761D02*
X112419046Y-112202142D01*
X112419046Y-112202142D02*
X112371427Y-112249761D01*
X112371427Y-112249761D02*
X112419046Y-112297380D01*
X112419046Y-112297380D02*
X112419046Y-112202142D01*
X111514285Y-111297380D02*
X111514285Y-112297380D01*
X111514285Y-111345000D02*
X111609523Y-111297380D01*
X111609523Y-111297380D02*
X111799999Y-111297380D01*
X111799999Y-111297380D02*
X111895237Y-111345000D01*
X111895237Y-111345000D02*
X111942856Y-111392619D01*
X111942856Y-111392619D02*
X111990475Y-111487857D01*
X111990475Y-111487857D02*
X111990475Y-111773571D01*
X111990475Y-111773571D02*
X111942856Y-111868809D01*
X111942856Y-111868809D02*
X111895237Y-111916428D01*
X111895237Y-111916428D02*
X111799999Y-111964047D01*
X111799999Y-111964047D02*
X111609523Y-111964047D01*
X111609523Y-111964047D02*
X111514285Y-111916428D01*
X110657142Y-111345000D02*
X110752380Y-111297380D01*
X110752380Y-111297380D02*
X110942856Y-111297380D01*
X110942856Y-111297380D02*
X111038094Y-111345000D01*
X111038094Y-111345000D02*
X111085713Y-111440238D01*
X111085713Y-111440238D02*
X111085713Y-111821190D01*
X111085713Y-111821190D02*
X111038094Y-111916428D01*
X111038094Y-111916428D02*
X110942856Y-111964047D01*
X110942856Y-111964047D02*
X110752380Y-111964047D01*
X110752380Y-111964047D02*
X110657142Y-111916428D01*
X110657142Y-111916428D02*
X110609523Y-111821190D01*
X110609523Y-111821190D02*
X110609523Y-111725952D01*
X110609523Y-111725952D02*
X111085713Y-111630714D01*
X109657142Y-111297380D02*
X110228570Y-111297380D01*
X109942856Y-111297380D02*
X109942856Y-112297380D01*
X109942856Y-112297380D02*
X110038094Y-112154523D01*
X110038094Y-112154523D02*
X110133332Y-112059285D01*
X110133332Y-112059285D02*
X110228570Y-112011666D01*
D10*
%TO.C,AP7381*%
X133327143Y-107876904D02*
X133803333Y-107876904D01*
X133231905Y-108162619D02*
X133565238Y-107162619D01*
X133565238Y-107162619D02*
X133898571Y-108162619D01*
X134231905Y-108162619D02*
X134231905Y-107162619D01*
X134231905Y-107162619D02*
X134612857Y-107162619D01*
X134612857Y-107162619D02*
X134708095Y-107210238D01*
X134708095Y-107210238D02*
X134755714Y-107257857D01*
X134755714Y-107257857D02*
X134803333Y-107353095D01*
X134803333Y-107353095D02*
X134803333Y-107495952D01*
X134803333Y-107495952D02*
X134755714Y-107591190D01*
X134755714Y-107591190D02*
X134708095Y-107638809D01*
X134708095Y-107638809D02*
X134612857Y-107686428D01*
X134612857Y-107686428D02*
X134231905Y-107686428D01*
X135136667Y-107162619D02*
X135803333Y-107162619D01*
X135803333Y-107162619D02*
X135374762Y-108162619D01*
X136089048Y-107162619D02*
X136708095Y-107162619D01*
X136708095Y-107162619D02*
X136374762Y-107543571D01*
X136374762Y-107543571D02*
X136517619Y-107543571D01*
X136517619Y-107543571D02*
X136612857Y-107591190D01*
X136612857Y-107591190D02*
X136660476Y-107638809D01*
X136660476Y-107638809D02*
X136708095Y-107734047D01*
X136708095Y-107734047D02*
X136708095Y-107972142D01*
X136708095Y-107972142D02*
X136660476Y-108067380D01*
X136660476Y-108067380D02*
X136612857Y-108115000D01*
X136612857Y-108115000D02*
X136517619Y-108162619D01*
X136517619Y-108162619D02*
X136231905Y-108162619D01*
X136231905Y-108162619D02*
X136136667Y-108115000D01*
X136136667Y-108115000D02*
X136089048Y-108067380D01*
X137279524Y-107591190D02*
X137184286Y-107543571D01*
X137184286Y-107543571D02*
X137136667Y-107495952D01*
X137136667Y-107495952D02*
X137089048Y-107400714D01*
X137089048Y-107400714D02*
X137089048Y-107353095D01*
X137089048Y-107353095D02*
X137136667Y-107257857D01*
X137136667Y-107257857D02*
X137184286Y-107210238D01*
X137184286Y-107210238D02*
X137279524Y-107162619D01*
X137279524Y-107162619D02*
X137470000Y-107162619D01*
X137470000Y-107162619D02*
X137565238Y-107210238D01*
X137565238Y-107210238D02*
X137612857Y-107257857D01*
X137612857Y-107257857D02*
X137660476Y-107353095D01*
X137660476Y-107353095D02*
X137660476Y-107400714D01*
X137660476Y-107400714D02*
X137612857Y-107495952D01*
X137612857Y-107495952D02*
X137565238Y-107543571D01*
X137565238Y-107543571D02*
X137470000Y-107591190D01*
X137470000Y-107591190D02*
X137279524Y-107591190D01*
X137279524Y-107591190D02*
X137184286Y-107638809D01*
X137184286Y-107638809D02*
X137136667Y-107686428D01*
X137136667Y-107686428D02*
X137089048Y-107781666D01*
X137089048Y-107781666D02*
X137089048Y-107972142D01*
X137089048Y-107972142D02*
X137136667Y-108067380D01*
X137136667Y-108067380D02*
X137184286Y-108115000D01*
X137184286Y-108115000D02*
X137279524Y-108162619D01*
X137279524Y-108162619D02*
X137470000Y-108162619D01*
X137470000Y-108162619D02*
X137565238Y-108115000D01*
X137565238Y-108115000D02*
X137612857Y-108067380D01*
X137612857Y-108067380D02*
X137660476Y-107972142D01*
X137660476Y-107972142D02*
X137660476Y-107781666D01*
X137660476Y-107781666D02*
X137612857Y-107686428D01*
X137612857Y-107686428D02*
X137565238Y-107638809D01*
X137565238Y-107638809D02*
X137470000Y-107591190D01*
X138612857Y-108162619D02*
X138041429Y-108162619D01*
X138327143Y-108162619D02*
X138327143Y-107162619D01*
X138327143Y-107162619D02*
X138231905Y-107305476D01*
X138231905Y-107305476D02*
X138136667Y-107400714D01*
X138136667Y-107400714D02*
X138041429Y-107448333D01*
%TO.C,D1*%
X132962619Y-103608094D02*
X131962619Y-103608094D01*
X131962619Y-103608094D02*
X131962619Y-103369999D01*
X131962619Y-103369999D02*
X132010238Y-103227142D01*
X132010238Y-103227142D02*
X132105476Y-103131904D01*
X132105476Y-103131904D02*
X132200714Y-103084285D01*
X132200714Y-103084285D02*
X132391190Y-103036666D01*
X132391190Y-103036666D02*
X132534047Y-103036666D01*
X132534047Y-103036666D02*
X132724523Y-103084285D01*
X132724523Y-103084285D02*
X132819761Y-103131904D01*
X132819761Y-103131904D02*
X132915000Y-103227142D01*
X132915000Y-103227142D02*
X132962619Y-103369999D01*
X132962619Y-103369999D02*
X132962619Y-103608094D01*
X132962619Y-102084285D02*
X132962619Y-102655713D01*
X132962619Y-102369999D02*
X131962619Y-102369999D01*
X131962619Y-102369999D02*
X132105476Y-102465237D01*
X132105476Y-102465237D02*
X132200714Y-102560475D01*
X132200714Y-102560475D02*
X132248333Y-102655713D01*
%TO.C,USER1*%
X140049524Y-100832619D02*
X140049524Y-101642142D01*
X140049524Y-101642142D02*
X140097143Y-101737380D01*
X140097143Y-101737380D02*
X140144762Y-101785000D01*
X140144762Y-101785000D02*
X140240000Y-101832619D01*
X140240000Y-101832619D02*
X140430476Y-101832619D01*
X140430476Y-101832619D02*
X140525714Y-101785000D01*
X140525714Y-101785000D02*
X140573333Y-101737380D01*
X140573333Y-101737380D02*
X140620952Y-101642142D01*
X140620952Y-101642142D02*
X140620952Y-100832619D01*
X141049524Y-101785000D02*
X141192381Y-101832619D01*
X141192381Y-101832619D02*
X141430476Y-101832619D01*
X141430476Y-101832619D02*
X141525714Y-101785000D01*
X141525714Y-101785000D02*
X141573333Y-101737380D01*
X141573333Y-101737380D02*
X141620952Y-101642142D01*
X141620952Y-101642142D02*
X141620952Y-101546904D01*
X141620952Y-101546904D02*
X141573333Y-101451666D01*
X141573333Y-101451666D02*
X141525714Y-101404047D01*
X141525714Y-101404047D02*
X141430476Y-101356428D01*
X141430476Y-101356428D02*
X141240000Y-101308809D01*
X141240000Y-101308809D02*
X141144762Y-101261190D01*
X141144762Y-101261190D02*
X141097143Y-101213571D01*
X141097143Y-101213571D02*
X141049524Y-101118333D01*
X141049524Y-101118333D02*
X141049524Y-101023095D01*
X141049524Y-101023095D02*
X141097143Y-100927857D01*
X141097143Y-100927857D02*
X141144762Y-100880238D01*
X141144762Y-100880238D02*
X141240000Y-100832619D01*
X141240000Y-100832619D02*
X141478095Y-100832619D01*
X141478095Y-100832619D02*
X141620952Y-100880238D01*
X142049524Y-101308809D02*
X142382857Y-101308809D01*
X142525714Y-101832619D02*
X142049524Y-101832619D01*
X142049524Y-101832619D02*
X142049524Y-100832619D01*
X142049524Y-100832619D02*
X142525714Y-100832619D01*
X143525714Y-101832619D02*
X143192381Y-101356428D01*
X142954286Y-101832619D02*
X142954286Y-100832619D01*
X142954286Y-100832619D02*
X143335238Y-100832619D01*
X143335238Y-100832619D02*
X143430476Y-100880238D01*
X143430476Y-100880238D02*
X143478095Y-100927857D01*
X143478095Y-100927857D02*
X143525714Y-101023095D01*
X143525714Y-101023095D02*
X143525714Y-101165952D01*
X143525714Y-101165952D02*
X143478095Y-101261190D01*
X143478095Y-101261190D02*
X143430476Y-101308809D01*
X143430476Y-101308809D02*
X143335238Y-101356428D01*
X143335238Y-101356428D02*
X142954286Y-101356428D01*
X144478095Y-101832619D02*
X143906667Y-101832619D01*
X144192381Y-101832619D02*
X144192381Y-100832619D01*
X144192381Y-100832619D02*
X144097143Y-100975476D01*
X144097143Y-100975476D02*
X144001905Y-101070714D01*
X144001905Y-101070714D02*
X143906667Y-101118333D01*
%TO.C,C3*%
X121713333Y-107357380D02*
X121665714Y-107405000D01*
X121665714Y-107405000D02*
X121522857Y-107452619D01*
X121522857Y-107452619D02*
X121427619Y-107452619D01*
X121427619Y-107452619D02*
X121284762Y-107405000D01*
X121284762Y-107405000D02*
X121189524Y-107309761D01*
X121189524Y-107309761D02*
X121141905Y-107214523D01*
X121141905Y-107214523D02*
X121094286Y-107024047D01*
X121094286Y-107024047D02*
X121094286Y-106881190D01*
X121094286Y-106881190D02*
X121141905Y-106690714D01*
X121141905Y-106690714D02*
X121189524Y-106595476D01*
X121189524Y-106595476D02*
X121284762Y-106500238D01*
X121284762Y-106500238D02*
X121427619Y-106452619D01*
X121427619Y-106452619D02*
X121522857Y-106452619D01*
X121522857Y-106452619D02*
X121665714Y-106500238D01*
X121665714Y-106500238D02*
X121713333Y-106547857D01*
X122046667Y-106452619D02*
X122665714Y-106452619D01*
X122665714Y-106452619D02*
X122332381Y-106833571D01*
X122332381Y-106833571D02*
X122475238Y-106833571D01*
X122475238Y-106833571D02*
X122570476Y-106881190D01*
X122570476Y-106881190D02*
X122618095Y-106928809D01*
X122618095Y-106928809D02*
X122665714Y-107024047D01*
X122665714Y-107024047D02*
X122665714Y-107262142D01*
X122665714Y-107262142D02*
X122618095Y-107357380D01*
X122618095Y-107357380D02*
X122570476Y-107405000D01*
X122570476Y-107405000D02*
X122475238Y-107452619D01*
X122475238Y-107452619D02*
X122189524Y-107452619D01*
X122189524Y-107452619D02*
X122094286Y-107405000D01*
X122094286Y-107405000D02*
X122046667Y-107357380D01*
%TO.C,Battery1*%
X99052380Y-98768809D02*
X99195237Y-98816428D01*
X99195237Y-98816428D02*
X99242856Y-98864047D01*
X99242856Y-98864047D02*
X99290475Y-98959285D01*
X99290475Y-98959285D02*
X99290475Y-99102142D01*
X99290475Y-99102142D02*
X99242856Y-99197380D01*
X99242856Y-99197380D02*
X99195237Y-99245000D01*
X99195237Y-99245000D02*
X99099999Y-99292619D01*
X99099999Y-99292619D02*
X98719047Y-99292619D01*
X98719047Y-99292619D02*
X98719047Y-98292619D01*
X98719047Y-98292619D02*
X99052380Y-98292619D01*
X99052380Y-98292619D02*
X99147618Y-98340238D01*
X99147618Y-98340238D02*
X99195237Y-98387857D01*
X99195237Y-98387857D02*
X99242856Y-98483095D01*
X99242856Y-98483095D02*
X99242856Y-98578333D01*
X99242856Y-98578333D02*
X99195237Y-98673571D01*
X99195237Y-98673571D02*
X99147618Y-98721190D01*
X99147618Y-98721190D02*
X99052380Y-98768809D01*
X99052380Y-98768809D02*
X98719047Y-98768809D01*
X100147618Y-99292619D02*
X100147618Y-98768809D01*
X100147618Y-98768809D02*
X100099999Y-98673571D01*
X100099999Y-98673571D02*
X100004761Y-98625952D01*
X100004761Y-98625952D02*
X99814285Y-98625952D01*
X99814285Y-98625952D02*
X99719047Y-98673571D01*
X100147618Y-99245000D02*
X100052380Y-99292619D01*
X100052380Y-99292619D02*
X99814285Y-99292619D01*
X99814285Y-99292619D02*
X99719047Y-99245000D01*
X99719047Y-99245000D02*
X99671428Y-99149761D01*
X99671428Y-99149761D02*
X99671428Y-99054523D01*
X99671428Y-99054523D02*
X99719047Y-98959285D01*
X99719047Y-98959285D02*
X99814285Y-98911666D01*
X99814285Y-98911666D02*
X100052380Y-98911666D01*
X100052380Y-98911666D02*
X100147618Y-98864047D01*
X100480952Y-98625952D02*
X100861904Y-98625952D01*
X100623809Y-98292619D02*
X100623809Y-99149761D01*
X100623809Y-99149761D02*
X100671428Y-99245000D01*
X100671428Y-99245000D02*
X100766666Y-99292619D01*
X100766666Y-99292619D02*
X100861904Y-99292619D01*
X101052381Y-98625952D02*
X101433333Y-98625952D01*
X101195238Y-98292619D02*
X101195238Y-99149761D01*
X101195238Y-99149761D02*
X101242857Y-99245000D01*
X101242857Y-99245000D02*
X101338095Y-99292619D01*
X101338095Y-99292619D02*
X101433333Y-99292619D01*
X102147619Y-99245000D02*
X102052381Y-99292619D01*
X102052381Y-99292619D02*
X101861905Y-99292619D01*
X101861905Y-99292619D02*
X101766667Y-99245000D01*
X101766667Y-99245000D02*
X101719048Y-99149761D01*
X101719048Y-99149761D02*
X101719048Y-98768809D01*
X101719048Y-98768809D02*
X101766667Y-98673571D01*
X101766667Y-98673571D02*
X101861905Y-98625952D01*
X101861905Y-98625952D02*
X102052381Y-98625952D01*
X102052381Y-98625952D02*
X102147619Y-98673571D01*
X102147619Y-98673571D02*
X102195238Y-98768809D01*
X102195238Y-98768809D02*
X102195238Y-98864047D01*
X102195238Y-98864047D02*
X101719048Y-98959285D01*
X102623810Y-99292619D02*
X102623810Y-98625952D01*
X102623810Y-98816428D02*
X102671429Y-98721190D01*
X102671429Y-98721190D02*
X102719048Y-98673571D01*
X102719048Y-98673571D02*
X102814286Y-98625952D01*
X102814286Y-98625952D02*
X102909524Y-98625952D01*
X103147620Y-98625952D02*
X103385715Y-99292619D01*
X103623810Y-98625952D02*
X103385715Y-99292619D01*
X103385715Y-99292619D02*
X103290477Y-99530714D01*
X103290477Y-99530714D02*
X103242858Y-99578333D01*
X103242858Y-99578333D02*
X103147620Y-99625952D01*
X104528572Y-99292619D02*
X103957144Y-99292619D01*
X104242858Y-99292619D02*
X104242858Y-98292619D01*
X104242858Y-98292619D02*
X104147620Y-98435476D01*
X104147620Y-98435476D02*
X104052382Y-98530714D01*
X104052382Y-98530714D02*
X103957144Y-98578333D01*
%TO.C,D3*%
X148202619Y-146788094D02*
X147202619Y-146788094D01*
X147202619Y-146788094D02*
X147202619Y-146549999D01*
X147202619Y-146549999D02*
X147250238Y-146407142D01*
X147250238Y-146407142D02*
X147345476Y-146311904D01*
X147345476Y-146311904D02*
X147440714Y-146264285D01*
X147440714Y-146264285D02*
X147631190Y-146216666D01*
X147631190Y-146216666D02*
X147774047Y-146216666D01*
X147774047Y-146216666D02*
X147964523Y-146264285D01*
X147964523Y-146264285D02*
X148059761Y-146311904D01*
X148059761Y-146311904D02*
X148155000Y-146407142D01*
X148155000Y-146407142D02*
X148202619Y-146549999D01*
X148202619Y-146549999D02*
X148202619Y-146788094D01*
X147202619Y-145883332D02*
X147202619Y-145264285D01*
X147202619Y-145264285D02*
X147583571Y-145597618D01*
X147583571Y-145597618D02*
X147583571Y-145454761D01*
X147583571Y-145454761D02*
X147631190Y-145359523D01*
X147631190Y-145359523D02*
X147678809Y-145311904D01*
X147678809Y-145311904D02*
X147774047Y-145264285D01*
X147774047Y-145264285D02*
X148012142Y-145264285D01*
X148012142Y-145264285D02*
X148107380Y-145311904D01*
X148107380Y-145311904D02*
X148155000Y-145359523D01*
X148155000Y-145359523D02*
X148202619Y-145454761D01*
X148202619Y-145454761D02*
X148202619Y-145740475D01*
X148202619Y-145740475D02*
X148155000Y-145835713D01*
X148155000Y-145835713D02*
X148107380Y-145883332D01*
D12*
%TO.C,R4*%
X109760000Y-133250000D02*
X116300000Y-133250000D01*
X109760000Y-133580000D02*
X109760000Y-133250000D01*
X109760000Y-135660000D02*
X109760000Y-135990000D01*
X109760000Y-135990000D02*
X116300000Y-135990000D01*
X116300000Y-133250000D02*
X116300000Y-133580000D01*
X116300000Y-135990000D02*
X116300000Y-135660000D01*
%TO.C,R5*%
X139160000Y-148690000D02*
X132620000Y-148690000D01*
X139160000Y-148360000D02*
X139160000Y-148690000D01*
X139160000Y-146280000D02*
X139160000Y-145950000D01*
X139160000Y-145950000D02*
X132620000Y-145950000D01*
X132620000Y-148690000D02*
X132620000Y-148360000D01*
X132620000Y-145950000D02*
X132620000Y-146280000D01*
%TO.C,C2*%
X109130000Y-120199000D02*
X109130000Y-120865000D01*
X109130000Y-120199000D02*
X114470000Y-120199000D01*
X109130000Y-122975000D02*
X109130000Y-123641000D01*
X109130000Y-123641000D02*
X114470000Y-123641000D01*
X114470000Y-120199000D02*
X114470000Y-120865000D01*
X114470000Y-122975000D02*
X114470000Y-123641000D01*
%TO.C,J4*%
X145990000Y-115570000D02*
X145990000Y-138490000D01*
X145990000Y-115570000D02*
X148650000Y-115570000D01*
X145990000Y-138490000D02*
X148650000Y-138490000D01*
X147320000Y-112970000D02*
X148650000Y-112970000D01*
X148650000Y-112970000D02*
X148650000Y-114300000D01*
X148650000Y-115570000D02*
X148650000Y-138490000D01*
%TO.C,MCLR1*%
X144780000Y-105410000D02*
X144780000Y-110550000D01*
X145990000Y-105410000D02*
X148650000Y-105410000D01*
X145990000Y-110550000D02*
X148650000Y-110550000D01*
X147320000Y-102810000D02*
X148650000Y-102810000D01*
X148650000Y-102810000D02*
X148650000Y-104140000D01*
X149860000Y-105410000D02*
X149860000Y-110550000D01*
%TO.C,R3*%
X135160000Y-112930000D02*
X141700000Y-112930000D01*
X135160000Y-113260000D02*
X135160000Y-112930000D01*
X135160000Y-115340000D02*
X135160000Y-115670000D01*
X135160000Y-115670000D02*
X141700000Y-115670000D01*
X141700000Y-112930000D02*
X141700000Y-113260000D01*
X141700000Y-115670000D02*
X141700000Y-115340000D01*
%TO.C,C4*%
X134090000Y-108050000D02*
X134090000Y-108295000D01*
X134090000Y-108050000D02*
X137730000Y-108050000D01*
X134090000Y-110145000D02*
X134090000Y-110390000D01*
X134090000Y-110390000D02*
X137730000Y-110390000D01*
X137730000Y-108050000D02*
X137730000Y-108295000D01*
X137730000Y-110145000D02*
X137730000Y-110390000D01*
%TO.C,D2*%
X112996000Y-144490000D02*
X112840000Y-144490000D01*
X110680000Y-144490000D02*
X110524000Y-144490000D01*
X112838608Y-147722334D02*
G75*
G03*
X112995515Y-144490001I-1078608J1672334D01*
G01*
X112839836Y-147091129D02*
G75*
G03*
X112839999Y-145009040I-1079836J1041129D01*
G01*
X110680001Y-145009040D02*
G75*
G03*
X110680164Y-147091129I1079999J-1040960D01*
G01*
X110524485Y-144490001D02*
G75*
G03*
X110681392Y-147722334I1235515J-1559999D01*
G01*
%TO.C,C6*%
X134530000Y-127819000D02*
X134530000Y-128485000D01*
X134530000Y-127819000D02*
X139870000Y-127819000D01*
X134530000Y-130595000D02*
X134530000Y-131261000D01*
X134530000Y-131261000D02*
X139870000Y-131261000D01*
X139870000Y-127819000D02*
X139870000Y-128485000D01*
X139870000Y-130595000D02*
X139870000Y-131261000D01*
%TO.C,PIC32MX170F256B1*%
X120590000Y-107830000D02*
X120590000Y-143630000D01*
X120590000Y-143630000D02*
X130870000Y-143630000D01*
X123080000Y-107890000D02*
X123080000Y-143570000D01*
X123080000Y-143570000D02*
X128380000Y-143570000D01*
X124730000Y-107890000D02*
X123080000Y-107890000D01*
X128380000Y-107890000D02*
X126730000Y-107890000D01*
X128380000Y-143570000D02*
X128380000Y-107890000D01*
X130870000Y-107830000D02*
X120590000Y-107830000D01*
X130870000Y-143630000D02*
X130870000Y-107830000D01*
X124730000Y-107890000D02*
G75*
G03*
X126730000Y-107890000I1000000J0D01*
G01*
%TO.C,R1*%
X109760000Y-107850000D02*
X116300000Y-107850000D01*
X109760000Y-108180000D02*
X109760000Y-107850000D01*
X109760000Y-110260000D02*
X109760000Y-110590000D01*
X109760000Y-110590000D02*
X116300000Y-110590000D01*
X116300000Y-107850000D02*
X116300000Y-108180000D01*
X116300000Y-110590000D02*
X116300000Y-110260000D01*
%TO.C,CP2102N1*%
X105470000Y-140970000D02*
X105470000Y-128210000D01*
X105470000Y-140970000D02*
X102810000Y-140970000D01*
X105470000Y-128210000D02*
X102810000Y-128210000D01*
X104140000Y-143570000D02*
X102810000Y-143570000D01*
X102810000Y-143570000D02*
X102810000Y-142240000D01*
X102810000Y-140970000D02*
X102810000Y-128210000D01*
%TO.C,J2*%
X102810000Y-113030000D02*
X102810000Y-125790000D01*
X102810000Y-113030000D02*
X105470000Y-113030000D01*
X102810000Y-125790000D02*
X105470000Y-125790000D01*
X104140000Y-110430000D02*
X105470000Y-110430000D01*
X105470000Y-110430000D02*
X105470000Y-111760000D01*
X105470000Y-113030000D02*
X105470000Y-125790000D01*
%TO.C,R2*%
X109760000Y-112930000D02*
X116300000Y-112930000D01*
X109760000Y-113260000D02*
X109760000Y-112930000D01*
X109760000Y-115340000D02*
X109760000Y-115670000D01*
X109760000Y-115670000D02*
X116300000Y-115670000D01*
X116300000Y-112930000D02*
X116300000Y-113260000D01*
X116300000Y-115670000D02*
X116300000Y-115340000D01*
%TO.C,C5*%
X113770000Y-138530000D02*
X113770000Y-138775000D01*
X113770000Y-138530000D02*
X117410000Y-138530000D01*
X113770000Y-140625000D02*
X113770000Y-140870000D01*
X113770000Y-140870000D02*
X117410000Y-140870000D01*
X117410000Y-138530000D02*
X117410000Y-138775000D01*
X117410000Y-140625000D02*
X117410000Y-140870000D01*
%TO.C,C1*%
X109130000Y-125279000D02*
X109130000Y-125945000D01*
X109130000Y-125279000D02*
X114470000Y-125279000D01*
X109130000Y-128055000D02*
X109130000Y-128721000D01*
X109130000Y-128721000D02*
X114470000Y-128721000D01*
X114470000Y-125279000D02*
X114470000Y-125945000D01*
X114470000Y-128055000D02*
X114470000Y-128721000D01*
D13*
%TO.C,Slide1*%
X117800000Y-106140000D02*
X117800000Y-102140000D01*
X117800000Y-102140000D02*
X105800000Y-102140000D01*
X105800000Y-106140000D02*
X117800000Y-106140000D01*
X105800000Y-102140000D02*
X105800000Y-106140000D01*
D12*
%TO.C,AP7381*%
X137910000Y-102440000D02*
X134060000Y-102440000D01*
X134021389Y-102449878D02*
G75*
G03*
X137910000Y-102440000I1948611J-1690122D01*
G01*
%TO.C,D1*%
X130776000Y-101310000D02*
X130620000Y-101310000D01*
X128460000Y-101310000D02*
X128304000Y-101310000D01*
X130618608Y-104542334D02*
G75*
G03*
X130775515Y-101310001I-1078608J1672334D01*
G01*
X130619836Y-103911129D02*
G75*
G03*
X130619999Y-101829040I-1079836J1041129D01*
G01*
X128460001Y-101829040D02*
G75*
G03*
X128460164Y-103911129I1079999J-1040960D01*
G01*
X128304485Y-101310001D02*
G75*
G03*
X128461392Y-104542334I1235515J-1559999D01*
G01*
%TO.C,USER1*%
X139700000Y-105410000D02*
X139700000Y-110550000D01*
X140910000Y-105410000D02*
X143570000Y-105410000D01*
X140910000Y-110550000D02*
X143570000Y-110550000D01*
X142240000Y-102810000D02*
X143570000Y-102810000D01*
X143570000Y-102810000D02*
X143570000Y-104140000D01*
X144780000Y-105410000D02*
X144780000Y-110550000D01*
%TO.C,C3*%
X124550000Y-105861000D02*
X124550000Y-105195000D01*
X124550000Y-105861000D02*
X119210000Y-105861000D01*
X124550000Y-103085000D02*
X124550000Y-102419000D01*
X124550000Y-102419000D02*
X119210000Y-102419000D01*
X119210000Y-105861000D02*
X119210000Y-105195000D01*
X119210000Y-103085000D02*
X119210000Y-102419000D01*
%TO.C,Battery1*%
X100270000Y-102870000D02*
X100270000Y-105470000D01*
X100270000Y-102870000D02*
X102930000Y-102870000D01*
X100270000Y-105470000D02*
X102930000Y-105470000D01*
X101600000Y-100270000D02*
X102930000Y-100270000D01*
X102930000Y-100270000D02*
X102930000Y-101600000D01*
X102930000Y-102870000D02*
X102930000Y-105470000D01*
%TO.C,D3*%
X146016000Y-144490000D02*
X145860000Y-144490000D01*
X143700000Y-144490000D02*
X143544000Y-144490000D01*
X145858608Y-147722334D02*
G75*
G03*
X146015515Y-144490001I-1078608J1672334D01*
G01*
X145859836Y-147091129D02*
G75*
G03*
X145859999Y-145009040I-1079836J1041129D01*
G01*
X143700001Y-145009040D02*
G75*
G03*
X143700164Y-147091129I1079999J-1040960D01*
G01*
X143544485Y-144490001D02*
G75*
G03*
X143701392Y-147722334I1235515J-1559999D01*
G01*
%TD*%
M02*
